<svg xmlns="http://www.w3.org/2000/svg" viewBox="0 0 306.11 173.7"><defs><style>.cls-1{fill:#ffc900;stroke:#c10590;stroke-miterlimit:10;stroke-width:3px;}.cls-2{fill:#ff0fd3;}</style></defs><title>thefinallogo</title><g id="Layer_2" data-name="Layer 2"><g id="Layer_1-2" data-name="Layer 1"><ellipse class="cls-1" cx="153.05" cy="48.13" rx="151.55" ry="46.63"/><path class="cls-2" d="M59.76,31.28a10.79,10.79,0,0,1-.83,1.26,15.64,15.64,0,0,0-1.2,2.59,38.76,38.76,0,0,0-1.8,22.67,17.57,17.57,0,0,0,1.4,4.09,24.67,24.67,0,0,0,2.37,3.64,3.21,3.21,0,0,1,.18.34c.34.8-.07,1.19-1.26,1.16h-.33c-1.24-.07-2.73-1.65-4-4.75a37.91,37.91,0,0,1-2.6-15.64,41.59,41.59,0,0,1,.9-7.07,54,54,0,0,1,2-7.13,6.32,6.32,0,0,1,1.85-2.54,4.17,4.17,0,0,1,2.25-1.25c.44,0,.79.27,1,.83A2.2,2.2,0,0,1,59.76,31.28Z"/><path class="cls-2" d="M75.56,67.12c.07.86-.14,1.28-.69,1.27a8,8,0,0,1-2.65-1.17c-.12-.23-.23-.45-.34-.68-.4-.83-1-2.07-1.59-3.72s-1-2.88-1.21-3.66C66.8,50.78,67,46.48,65.3,46.51c-.42,0-.94.56-1.48,1.66a15.85,15.85,0,0,0-.65,12.08,19,19,0,0,0,1.24,2.92c.65,1.29,1.15,2.25,1.45,2.9a1.56,1.56,0,0,1,.14,1.3.75.75,0,0,1-.77.48c-1.46,0-3-1.48-4.08-4.38a43.29,43.29,0,0,1-2.74-12.1c0-.31,0-.77,0-1.37s0-1,0-1.36c0-.47,0-1.15-.08-2a15,15,0,0,1,0-2,3.17,3.17,0,0,1,.85-1.78,2.12,2.12,0,0,1,1.3-.86c.51,0,.94.47,1.35,1.44-.14.78-.25,1.56-.34,2.34,1-2.31,2.34-3.47,3.61-3.49a3.24,3.24,0,0,1,2.43,1.39,8.93,8.93,0,0,1,1.77,3.19c.86,3,1.53,7,2.9,11.9A46,46,0,0,0,75.56,67.12Z"/><path class="cls-2" d="M101.91,30.58c-.58.71-1.46,1.68-2.61,2.91A23.65,23.65,0,0,0,97,36.38a44.91,44.91,0,0,0-5.83,19c-.38,10.12,1.6,14.38.6,14.41a4.11,4.11,0,0,1-2.2-.84,5.83,5.83,0,0,1-2.07-2.36,4.38,4.38,0,0,1-.37-2.27c.07-.91-.11-2.54-.26-5a38,38,0,0,1,0-5.54,18.41,18.41,0,0,1-4.22-9c-1.31-6.86-.17-11.44,1-14,1.06-2.19,2.35-3.25,3.63-3.27,1.49,0,1.47,1.2.25,3.82-.12.27-.34.68-.63,1.23a12.77,12.77,0,0,0-.63,1.31,17.79,17.79,0,0,0-.74,7.83c.38,3.84,1.41,6.09,2.23,6.66.35-.78,1-3.15,2.84-7.07a47.54,47.54,0,0,1,5.52-9.08c2.33-2.89,4-4.23,4.75-4.24a1.08,1.08,0,0,1,1.11.71A2.82,2.82,0,0,1,101.91,30.58Z"/><path class="cls-2" d="M110.27,56.5a36.11,36.11,0,0,1,.6,9.17c-.32,2.74-1.36,4-3.5,4s-4.4-1.1-6.52-3.37a18.74,18.74,0,0,1-3.61-19c1.5-4,3.71-5.92,5.86-5.93a3.62,3.62,0,0,1,2.38,1.41C108.14,45.5,109.29,50.19,110.27,56.5Zm-3.52-.15c-1-6.34-1.54-9.61-3.57-9.58-1.39,0-2.56,1.36-3.13,4.07a16.8,16.8,0,0,0,.12,6.86c1.23,5.4,3.48,7.86,5.43,7.9,1.3,0,1.83-1,1.82-3.15A40,40,0,0,0,106.75,56.35Z"/><path class="cls-2" d="M125.74,46.41c0,1.31-.16,3.31-.23,6a39.77,39.77,0,0,0,.25,5.92c.16,1.15.45,2.86,1,5S127.71,67,128,68s-.12,1.24-1.1,1.23-1.87-.68-2.57-2.08A2.89,2.89,0,0,1,122,68.5a6.84,6.84,0,0,1-2.79-.87,7.69,7.69,0,0,1-2.69-2.13,18.06,18.06,0,0,1-3.1-8,48.42,48.42,0,0,1-.64-7c0-3,.16-5.35.28-7A3.71,3.71,0,0,1,115.19,42c1.3,0,1.83,1,1.7,2.95,0,.68-.15,1.69-.3,3.05a21.8,21.8,0,0,0-.14,3,57.84,57.84,0,0,0,1.06,8.79,9.74,9.74,0,0,0,1.18,3c.72,1.19,1.38,1.76,2,1.77,1.11,0,1.63-1,1.74-3.22a39.53,39.53,0,0,0-.32-5.65,66.47,66.47,0,0,1-.41-7.62,21.89,21.89,0,0,0-.37-3.63c.74-1,1.43-1.46,2.06-1.46a2.13,2.13,0,0,1,1.71.94A3.66,3.66,0,0,1,125.74,46.41Z"/><path class="cls-2" d="M139.67,47.24c0,.3,0,.77-.09,1.42-.58,1.29-1.18,1.93-1.81,1.93s-1-.47-1.43-1.42c-.07-1.93-.48-2.89-1.31-2.89-.48,0-1.2,2-1.76,6.1a28.85,28.85,0,0,0,.09,7.34,22.18,22.18,0,0,0,1,5.13,8.51,8.51,0,0,1,.57,1.48,1.8,1.8,0,0,1-.27,1.52,1.43,1.43,0,0,1-1.17.57c-1.34,0-2.26-.9-2.69-2.79a5,5,0,0,1-.07-.81,5.72,5.72,0,0,0,0-.75c-.38-2-1-5-1.46-9.26a65.85,65.85,0,0,1-.38-9.61c.08-1.92.9-2.87,2.37-2.87a1.66,1.66,0,0,1,1.74,1.2c.84-1.32,1.75-2,2.71-2a2.66,2.66,0,0,1,1.84.82,6.86,6.86,0,0,1,1.36,2.2A7,7,0,0,1,139.67,47.24Z"/><path class="cls-2" d="M166.92,29.93c.13,1.33-.44,2-1.7,2a4.51,4.51,0,0,1-.73-.09,6.31,6.31,0,0,0-.73-.09,12.33,12.33,0,0,0-4,.87c-2.11.78-3.47,1.23-4,1.35-.2,1.94-.4,3.93-.61,6-.23,2.47-.36,4.58-.36,6.25,0,1.38.22,2,.67,2l.29-.06a42.49,42.49,0,0,1,4.68-.45,4.38,4.38,0,0,1,4.26,2.84c0,1.8-.47,2.7-1.32,2.7a2.1,2.1,0,0,1-.73-.19,2.12,2.12,0,0,0-.72-.19c-.37,0-.88,0-1.54-.07h-1.54a12.51,12.51,0,0,0-3.5.39c-.44.17-.71.37-.79.61a7.07,7.07,0,0,0-.17,1.6c0,.83-.05,1.64,0,2.43,0,4.89.22,7.27.43,7.66a5.16,5.16,0,0,1,.61,1.64,2.26,2.26,0,0,1-.6,1.51,1.63,1.63,0,0,1-1.13.72,1.77,1.77,0,0,1-1.79-1.13c-.6-1.38-1-4.09-1.2-8.58-.08-2.45,0-6.25.3-11.4s.58-8.94.65-11.38c.05-1.8,0-2.66-.2-2.67a1,1,0,0,0-.26.06,1,1,0,0,1-.26.06c-.32,0-.6-.32-.85-.94a4.1,4.1,0,0,1-.32-1.75,1.59,1.59,0,0,1,.85-1.36,9.06,9.06,0,0,1,1.31-.56,3.43,3.43,0,0,1-.07-.77c.06-1.23.52-1.81,1.37-1.81.47,0,1.18.53,2.18,1.65a41.22,41.22,0,0,1,8.23-1.44,4,4,0,0,1,2,.53A2.6,2.6,0,0,1,166.92,29.93Z"/><path class="cls-2" d="M179.74,58.31a52.24,52.24,0,0,1-2,10.6,2,2,0,0,1-1.94,1.64c-1.38,0-1.79-.93-1.28-3a7.83,7.83,0,0,1-4.16,1.32,5.37,5.37,0,0,1-3.6-1.4A5.25,5.25,0,0,1,164.9,63a8,8,0,0,1,2.86-5.37c1.66-1.55,3.19-2.34,4.59-2.34h3.51c0-.5,0-1,.07-1.51.21-4.44-.73-6.7-2.47-6.69-2.19,0-3.26,1.57-3.31,4.71,0,1.06-.43,1.59-1.2,1.59-.47,0-.95-.33-1.45-1a3.35,3.35,0,0,1-.75-2.09,10.26,10.26,0,0,1,1.64-5.93,4.63,4.63,0,0,1,3.9-2.29C177.34,42,180.73,47.6,179.74,58.31Zm-4.31,2.23c.09-.82-.28-1.23-1.09-1.22-3.39,0-5.15,1.24-5.34,3.58-.1,1.27.56,1.87,2,1.87a4.08,4.08,0,0,0,2.65-1.12A4.41,4.41,0,0,0,175.43,60.54Z"/><path class="cls-2" d="M196.1,61.67a9.52,9.52,0,0,1-3,4.27,12.52,12.52,0,0,1-3.74,2.74,7.43,7.43,0,0,1-2.56.55,3.79,3.79,0,0,1-3.94-2.7c-.71-1.86-.82-4.37-.43-7.62A78.63,78.63,0,0,1,184.79,48c1.3-4.88,2.5-7.24,4.28-7.23a6.62,6.62,0,0,1,3.71,1.77,7.54,7.54,0,0,1,2.81,3.94,16.14,16.14,0,0,1,.33,3.88,16.34,16.34,0,0,1-.83,4.43c-.66,2.1-1.38,3.12-2,3.13a1.51,1.51,0,0,1-1.2-.61,2,2,0,0,1-.53-1.67s.18-.52.51-1.44a13.54,13.54,0,0,0,.41-3.48,18,18,0,0,0-.08-3c-.18-1.32-.6-2-1.2-2-1.35,0-2.26,1.8-3.12,5.41-.64,2.68-1.15,5.35-1.52,8-.63,4.36-.3,6.32,1.46,6.32a5,5,0,0,0,2.82-1.64,12.06,12.06,0,0,0,2.46-3.16c.67-1.3,1.3-2,1.91-2,.4,0,.73.36,1,1.07A3.49,3.49,0,0,1,196.1,61.67Z"/><path class="cls-2" d="M210.49,63a7.87,7.87,0,0,1-4.29,4.49,11.13,11.13,0,0,1-4.7,1.25c-3.89,0-4.28-3-2.91-10.1.54-2.94,1.39-6.32,2.35-10,1.14-4.57,2.11-6.8,3.76-6.79,1.45,0,3.19,1,5,3.09a8.66,8.66,0,0,1,2.57,6.39,9.06,9.06,0,0,1-3.2,6.52A8.18,8.18,0,0,1,203.77,60c-.37,0-.88-.33-1.55-1-.71,3.86-.68,5.63.67,5.63a7.08,7.08,0,0,0,3.82-1.5,8.35,8.35,0,0,1,2.56-1.5C210.38,61.58,210.8,62.05,210.49,63Zm-2.05-11.51a6.59,6.59,0,0,0-.48-3c-.39-.94-.92-1.41-1.56-1.41-.88,0-1.54.6-2,1.82a13.14,13.14,0,0,0-.77,3.73,3.32,3.32,0,0,0,.32,1.94,1.33,1.33,0,0,0,1.22.74C207.07,55.29,208.26,54,208.44,51.48Z"/><path class="cls-2" d="M238.82,58.08a11.65,11.65,0,0,1-1.18,2.7,16.7,16.7,0,0,1-6,6,12.65,12.65,0,0,1-6.12,2c-3.07,0-4.38-1.58-4.62-5.14-.23-3.09.29-7.28.65-12.56.29-4.37.27-8.49.22-12.22-.09-4.25-.13-7.39.55-9.59.53-1.71,1.43-2.53,2.9-2.51,2.08,0,4.53,1.38,7,4.2a20.82,20.82,0,0,1,4.47,8.83,16.94,16.94,0,0,1,.15,6.18c-.44,3.06-1.32,4.6-2.06,4.61s-1.46-.89-1.93-2.68a13.15,13.15,0,0,0,1-1.39c.45-.89.61-2.63.12-5.2a21.16,21.16,0,0,0-2.21-6.24c-1.43-2.54-2.88-3.78-4-3.8-.8,0-1.29.74-1.62,2.31a25.18,25.18,0,0,0-.48,4c-.18,3.79,0,8.71-.54,14.57-1,8.52-1.37,12.38,2.68,12.32a7.16,7.16,0,0,0,4.84-2.25,27.35,27.35,0,0,0,3.07-4.19c.91-1.54,1.6-2.32,2.2-2.33a.93.93,0,0,1,.87.73A2.54,2.54,0,0,1,238.82,58.08Z"/><path class="cls-2" d="M254.52,55.91a19.05,19.05,0,0,1-4.3,8.92c-2.44,2.82-5,4.21-7.06,4.25s-3.15-1-3.17-3.28c-.06-2,.62-4.75,1.51-8.34s1.74-7,2.72-10.13c1.11-3.78,2.24-5.62,4.24-5.59A4.6,4.6,0,0,1,251,43.12C254,45.77,255.61,50,254.52,55.91Zm-3.05-.07c1.08-6-.25-9-1.91-9-1.26,0-2.09,1.27-2.88,3.85-.59,1.94-1.12,4.14-1.7,6.57-1.33,5.21-1.76,7.69.23,7.66,1.23,0,2.65-1.1,4-3.23A17.23,17.23,0,0,0,251.47,55.84Z"/><path class="cls-2" d="M259.2,64.78a4.36,4.36,0,0,1-1.83,1.94,5.07,5.07,0,0,1-2.23,1,1.4,1.4,0,0,1-1.28-.93,2.7,2.7,0,0,1,.06-2.27,5.35,5.35,0,0,1,1.48-2.05,3.15,3.15,0,0,1,1.79-.93,2.1,2.1,0,0,1,1.68.87A2.36,2.36,0,0,1,259.2,64.78Z"/><text/><text/></g></g></svg>